/* XPM */
static char *d58e8fbee7284584efe2a321e7c91bbdmz2StMdvI5qKURMr[] = {
/* columns rows colors chars-per-pixel */
"32 32 59 1 ",
"  c #24212C",
". c #26232F",
"X c #353040",
"o c #393546",
"O c #2C2836",
"+ c #302C3B",
"@ c #373343",
"# c #3A3547",
"$ c #2C2835",
"% c #332F3E",
"& c #373243",
"* c #363142",
"= c #332F3F",
"- c #383344",
"; c #2D2937",
": c #24212D",
"> c #343040",
", c #25222D",
"< c #2D2936",
"1 c #2F2B3A",
"2 c #363242",
"3 c #25212D",
"4 c #26232E",
"5 c #2A2633",
"6 c #383445",
"7 c #3C3749",
"8 c #272430",
"9 c #353141",
"0 c #302D3B",
"q c #2A2733",
"w c #282531",
"e c #393445",
"r c #292532",
"t c #373344",
"y c #2E2A38",
"u c #312D3C",
"i c #3A3647",
"p c #302C3A",
"a c #2C2936",
"s c #322E3D",
"d c #363141",
"f c #282430",
"g c #383444",
"h c #2F2B39",
"j c #27242F",
"k c #34303F",
"l c #2B2835",
"z c #292632",
"x c #3B3648",
"c c #3A3546",
"v c #26222E",
"b c #3B3748",
"n c #2D2A37",
"m c #2B2735",
"M c #393446",
"N c #322E3E",
"B c #2B2734",
"V c #282431",
"C c #25222E",
/* pixels */
"         .X                     ",
"          oO                    ",
"           +@                   ",
"            #                $%&",
"            *           =&&-&;: ",
"            >,         <1       ",
"            2,      3456        ",
"            78     9-%0,        ",
"           q=&,  ,%6Xw          ",
"           @489e69r :&          ",
"          .or        t        4 ",
"           y5        e      OtuX",
"          :i4        y9    8t   ",
"          1;          pa  ,-,   ",
"sw      w*>           ru  df    ",
"fugw ,heuj&;           - Ok     ",
"  :*@>a    e           &h2      ",
"          l9          @dy       ",
"         l=          >z         ",
"         ppxocc#i    g          ",
"          t     2>5  -          ",
"          t      v9+:-          ",
"         ,>        $2bl         ",
"          o           ss        ",
"         $n            m-h      ",
"         a>,             lb     ",
"          1;              9     ",
"          M3              N4    ",
"         sB               yB    ",
"        .2                -V    ",
"     mC @C                e     ",
"     B&x%                 e     "
};
