/* XPM */
static char *aae30fb04701449b81f3b64e57a94c5bHNZkvoh7YDhGIuWE[] = {
/* columns rows colors chars-per-pixel */
"32 32 24 1 ",
"  c black",
". c #010101",
"X c gray2",
"o c #060606",
"O c #070707",
"+ c gray3",
"@ c #090909",
"# c gray4",
"$ c #0B0B0B",
"% c white",
"& c #444444",
"* c #020202",
"= c gray1",
"- c #040404",
"; c #191919",
": c gray11",
"> c #0C0C0C",
", c #161616",
"< c #151515",
"1 c gray7",
"2 c gray5",
"3 c #131313",
"4 c gray6",
"5 c #111111",
/* pixels */
" .        .....        .        ",
"..XoO+++++@@@@@   @@@@####$$#+  ",
" @%%%%%%%%%%%%%&&%%%%%%%%%%%%%  ",
" .%%%%%%%%%%%%%&&%%%%%%%%%%%%%  ",
"..%%%%%%%%%%%%%&&%%%%%%%%%%%%%  ",
"o*%%%%%%%%%%%%%&&%%%%%%%%%%%%%  ",
" =%%%%%%%%%%%%%&&%%%%%%%%%%%%%  ",
"=-%%%%%%%%%%%%%&&%%%%%%%%%%%%%  ",
"-.%%%%%%%%%%%%%&&%%%%%%%%%%%%%  ",
"..%%%%%%%%%%%%%&&%%%%%%%%%%%%%  ",
" ;%%%%%%%%%%%%%&&%%%%%%%%%%%%%  ",
" :%%%%%%%%%%%%%&&%%%%%%%%%%%%%  ",
"*>%%%%%%%%%%%%%&&%%%%%%%%%%%%%  ",
"X,%%%%%%%%%%%%%&&%%%%%%%%%%%%%  ",
".=%%%%%%%%%%%%%&&%%%%%%%%%%%%%  ",
" *%%%%%%%%%%%%%&&%%%%%%%%%%%%%  ",
" -%%%%%%%%%  %%&&%%  %%%%%%%%%  ",
" o%%%%%%%%%  %%&&%%  %%%%%%%%%  ",
" o%%%%%%%%%  %%&&%%  %%%%%%%%%  ",
" X%%%%%%%%%  %%&&%%  %%%%%%%%%  ",
" X%%%%%%%%%%%%%&&%%%%%%%%%%%%%  ",
"O*%%%%%%%%%%%%%&&%%%%%%%%%%%%%  ",
"<=%%%%%%%%%%%%%&&%%%%%%%%%%%%%  ",
"<@%%%%%%%%%%%%%&&%%%%%%%%%%%%%  ",
"1@%%%%%%%%%%%%%&&%%%%%%%%%%%%%  ",
"2=%%%%%%%%%%%%%&&%%%%%%%%%%%%%  ",
"3=%%%%%%%%%%%%%&&%%%%%%%%%%%%%  ",
"4.%%%%%%%%%%%%%&&%%%%%%%%%%%%%  ",
"5.%%%%%%%%%%%%%&&%%%%%%%%%%%%%  ",
"1 %%%%%%%%%%%%%&&%%%%%%%%%%%%%  ",
"#                               ",
"-                               "
};
