/* XPM */
static char *_bc843d6b43242c083cd32ad53da8b063J2KcMmgrLmriJTg[] = {
/* columns rows colors chars-per-pixel */
"16 15 34 1 ",
"  c #161324",
". c #171324",
"X c #171425",
"o c #181423",
"O c #1A1325",
"+ c #181327",
"@ c #191524",
"# c #181425",
"$ c #181526",
"% c #191526",
"& c #1B1426",
"* c #252B41",
"= c #252942",
"- c #242A42",
"; c #252B43",
": c #262A43",
"> c #242C41",
", c #242C43",
"< c #262C42",
"1 c #252B45",
"2 c #262C44",
"3 c #394366",
"4 c #3B4367",
"5 c #394464",
"6 c #3A4565",
"7 c #384567",
"8 c #3A4467",
"9 c #384568",
"0 c #3A4468",
"q c #3B4568",
"w c #3B4569",
"e c #596885",
"r c #5B6888",
"t c #5A6988",
/* pixels */
"#88#;;##08<X1081",
"8tt8####,<XXX<<X",
"0tt4X;04.X188OOX",
"8884>8tt0X88e81X",
";80;;4et8#;;88<X",
".;<#.,,88;88<###",
"0###888<;8tt8#<8",
"w8#88tt8#8tt8#80",
"48;88tt81888;X88",
";.#;088;o;1<O;,<",
"O;<X;;o;;;X#,94,",
"#48<XX#188;X,44,",
"#<1;#+#<88<#.;;X",
"########1;##.O#X",
"XO#.############"
};
