/* XPM */
static char *_cc6042565b043f5ece8e2cabf9ead9daD3SMKWjdDB1x7GI[] = {
/* columns rows colors chars-per-pixel */
"16 16 26 1 ",
"  c #171324",
". c #171425",
"X c #181423",
"o c #191224",
"O c #1A1325",
"+ c #181327",
"@ c #191524",
"# c #181425",
"$ c #232B42",
"% c #252B41",
"& c #262B41",
"* c #242A42",
"= c #252B43",
"- c #262A43",
"; c #242C43",
": c #242A44",
"> c #252B45",
", c #252D44",
"< c #262C44",
"1 c #394366",
"2 c #3B4367",
"3 c #3A4565",
"4 c #384567",
"5 c #3A4467",
"6 c #3B4368",
"7 c #3A4468",
/* pixels */
"##5515#===;&445.",
"#5====5===:<<:&5",
"#======7=&<&=<&;",
"5=======o&::=:<:",
"========##1551O.",
"=#==<==$#1==$=7#",
"=##====O2&====&7",
"=#.516#O=<=$=$:;",
"X 5$==7##=<&<<:#",
"5.==$==55O<::#77",
"&#=======7.#55&<",
"&5O=====&$#7::<:",
"<;.;;====##=&<=;",
"<<.=&<=.###=<:=$",
"$..#&<.O555#====",
"OO#####2===5.O.O"
};
