/* XPM */
static char *_045763b0d60412aef8f685a83ba9575ER4n5XkCqmorXgXw[] = {
/* columns rows colors chars-per-pixel */
"16 16 29 1 ",
"  c #161324",
". c #171324",
"X c #171425",
"o c #181423",
"O c #1A1325",
"+ c #191126",
"@ c #181425",
"# c #191526",
"$ c #252B41",
"% c #252942",
"& c #242A42",
"* c #252B43",
"= c #262A43",
"- c #242C43",
"; c #262C42",
": c #252B45",
"> c #272B44",
", c #262A45",
"< c #262C44",
"1 c #262C46",
"2 c #394366",
"3 c #3B4367",
"4 c #3A4565",
"5 c #384567",
"6 c #3A4467",
"7 c #384568",
"8 c #3A4468",
"9 c #3B4568",
"0 c #3B4569",
/* pixels */
"*1@******@3;1&*&",
"6666****=o6**;*9",
";***X266933669X6",
"****o6**=*;:;;@6",
"@OOXX:;***:*&&XX",
"*O626266892o9929",
"*o5********X6*:*",
"*o*********o****",
"226@**6592966166",
":**@**6**:-&&X**",
"*:*X-*;:***;1@;:",
"OO696662666o@@@@",
"666*******;@6666",
"**6*:;&***:@;*:;",
"**o.XX@@XXoX:;**",
"**@6696**X666666"
};
