/* XPM */
static char *_48fde3441c045429ae4607f0561c447TcKxXT8Sg5eOof4I[] = {
/* columns rows colors chars-per-pixel */
"75 60 123 2 ",
"   c #393A4F",
".  c #3A3B4F",
"X  c #3C3A4F",
"o  c #393951",
"O  c #393B50",
"+  c #3A3B50",
"@  c #3A3A52",
"#  c #3C3A50",
"$  c #3C3A52",
"%  c #3B3C50",
"&  c #3B3C51",
"*  c #45455D",
"=  c #46475C",
"-  c #45455F",
";  c #45475E",
":  c #46465E",
">  c #47475F",
",  c #48465E",
"<  c #46485F",
"1  c #464660",
"2  c #545871",
"3  c #555972",
"4  c #555974",
"5  c #90655F",
"6  c #8F6660",
"7  c #8F6662",
"8  c #906461",
"9  c #916660",
"0  c #916562",
"q  c #926562",
"w  c #906763",
"e  c #926663",
"r  c #936663",
"t  c #916564",
"y  c #9B7767",
"u  c #997867",
"i  c #9B7769",
"p  c #9C7669",
"a  c #9D776A",
"s  c #9D776C",
"d  c #9A7968",
"f  c #9A796A",
"g  c #9B7A6B",
"h  c #9C7868",
"j  c #9D7969",
"k  c #9C786A",
"l  c #9D796B",
"z  c #9C786C",
"x  c #6B6D82",
"c  c #6C6E83",
"v  c #6A6F85",
"b  c #6D6D85",
"n  c #6C6E85",
"m  c #6D6F86",
"M  c #6C6E87",
"N  c #927589",
"B  c #937688",
"V  c #93768A",
"C  c #95758A",
"Z  c #94778B",
"A  c #9C8F98",
"S  c #9C8F99",
"D  c #9B9098",
"F  c #B79D84",
"G  c #B69E84",
"H  c #B79F85",
"J  c #B89E83",
"K  c #B99D85",
"L  c #B99F84",
"P  c #B89E85",
"I  c #B99D87",
"U  c #B99F86",
"Y  c #BA9E86",
"T  c #CFBF9B",
"R  c #CFBF9D",
"E  c #D1BF9B",
"W  c #D0BD9C",
"Q  c #D1BE9D",
"!  c #D2BD9E",
"~  c #D2BF9E",
"^  c #DFD0AF",
"/  c #DECFB0",
"(  c #DFD0B1",
")  c #E0CFB1",
"_  c #E0D1B2",
"`  c #D7CEDF",
"'  c #D6CFDF",
"]  c #DACFDF",
"[  c #D8D0DF",
"{  c #D8CFE0",
"}  c #DACFE0",
"|  c #D8CFE2",
" . c #DACEE2",
".. c #D7D0E0",
"X. c #D7D0E2",
"o. c #D9D0E1",
"O. c #D8D1E1",
"+. c #DBD0E1",
"@. c #D8D2E0",
"#. c #D9D0E3",
"$. c #EAE3F3",
"%. c #EAE4F0",
"&. c #EBE5F1",
"*. c #E9E6F1",
"=. c #E8E4F2",
"-. c #E9E5F3",
";. c #EAE4F2",
":. c #EBE5F3",
">. c #ECE4F3",
",. c #E9E5F4",
"<. c #EBE4F4",
"1. c #ECE5F5",
"2. c #ECE6F4",
"3. c gray97",
"4. c #F7F9F6",
"5. c #F8F8F6",
"6. c #F9F8F6",
"7. c #F9F9F7",
"8. c #F9F7F8",
"9. c #F7F9F8",
"0. c #F8F8F8",
"q. c #F9F9F9",
"w. c #F8F8FA",
/* pixels */
": , 1 , : : : : : @ % % @ % @ @ % @ % @ . . @ % @ % @ . % @ % . % @ @ % @ % @ . @ . % . % @ @ % @ % @ . % @ . . . % @ . . . . % . % @ % @ . % % @ % @ ",
": : : : < : : : < @     . . . . % % @ % @ % % % . . % . @ % @ . . . % % . . % . % @ @ . . . % % . . % . @ % % @ @ O % % % @ @ O @ % . . % . . @ . . . ",
": : : : : : : : :         @ % @ % % . @ .     % % % @ . % % % % % @ . % % % O @ % % % % % @ . % % % O @ % % % % . % @ % % % . . % % . @ O @   % . . . ",
": : : ^ ( ( ( ( _ / _ _ E ~ W W W W ( / ( R W W R ~ W W W W W ~ R W W W W W W R ~ W W W R W W W W W W R W W W ~ R W W W W W W R W ~ W ~ R J G P % @ % ",
": 1 : ( ( ( ( ( ( ( _ _ E W ~ W W W _ ^ _ ~ W W W W ~ W ~ W ~ W ~ W ~ W W W ~ W W ~ W ~ W ~ W W W W ~ W ~ W ~ W W W W W W W W W ~ W ~ W W P P P @ . . ",
": : : ( ( ) ( ( ( ( _ _ W ~ W ~ W W _ _ _ W ~ ~ W W W ~ W ~ W ~ W ~ W ~ W ~ W ~ ~ W ~ W ~ W ~ W W ~ W ~ W ~ W ~ W W / W W / T W W W W ~ W P P G % . @ ",
": : : i k k k k k k k k k k k k k k i k a f k k z k k k k k k k k k k k k k z k k k k k k k k k z k k k k k k k y y f a i i y y k k k k k q 6 t O . % ",
": : : i k k k k k k k k k k k k k k k k i a k k k k k k k k k k k k k k k k k k k k k k k k k k k k k k k k k k i i a i s i i p a k k k f q q q @ . O ",
": : : k k u a f k k f a f k k k h f k k k k k k f i k k k f k k k k z k k k k k k f k k f a f i k k k k k k a f i i y i a i i z k k k k k t 6 t @ O . ",
"% % . U P J ] | ' ] o.] 8.0.0.>.>.>.[ [ ] | ' ] ] ] | ' [ o.0.0.0.k f k k k k q q q | o.| ] ] | | ' ] | | ' ] | | | ] | | ] X.0.8.5.>.-.>.q q q . % . ",
"@ . . P P P ' ] | ' | | 0.5.0.<.>.-.| ] ] ] | | | ] | ] | ] 0.0.5.k k z k k k q 6 q ] o.| | ' ] ] ' ] ' ] ' ' ] ] ] ' | | ] ] 9.0.8.-.-.>.9 q q . % @ ",
".   @ J G P | | | ] ] o.0.0.0.<.>.-.' ' | ' ] ' ] | ' | ] ' 0.5.0.k k f k k k 5 q q | ' ' ] | | ] | | ' ] | | ] ] | ' | ] ' | 0.0.5.-.-.>.q 9 t @ O O ",
". . . W ~ W o.o.o.0.0.0.2.-.-.o.' ] | | | ] ] ' ' ] ' 9.0.0.-.>.2.G P P a k k q q 6 | ' ' | X.' ' ' | ] ] | ' ' ] ' ' ' 3.0.0.2.>.>.o.[ | t q t . O @ ",
"% @ % W W W o.o.o.0.0.0.<.>.>.[ | ] ' ] ' ' | o.| | | 0.0.0.>.>.>.P P P k k k q q 8 ] ' ' ] ] | | ] | ' ' | ] | | | ] ] 0.0.0.-.-.>.[ X.' 6 q q . % . ",
". @ % W W W ] | | 4.5.0.>.-.-.o.| ' ] ' ] | ] | | [ | 5.5.0.-.-.<.G P P k k k q 7 q | ] | | ] ] ] | ] ' ' ] | ] o.' o.| 0.5.0.>.-.>.' ] | q 6 t . @ . ",
"% % % z f a 4.0.8.-.>.-.o.| ] | ] ' | | ] ' ] | 5.0.0.-.>.>.| ] | P P P k k k r t q ' | ] ' ' | ' ' ] | | ] ' | | 5.0.0.2.>.-.o.' ] | | ] q q 7 . O % ",
"@ . % f a k 9.0.0.2.>.>.o.[ | ' ' [ | ' | | ] ' 5.0.0.2.2.-.o.' | P P P k a f q q q | ] | ] ] ' | | ] ' ] ' | X.] 4.0.0.2.>.>.[ ] | ' ' ] q q q @ . . ",
"% . % k i i 0.0.5.-.-.>.| o.] ' [ ] ] | ] ' ' o.5.5.0.2.>.>.] | ] P P P k f a q q q ' ' ' ' | | ] ' ] | o.| ] ' | 9.9.8.<.-.-.o.' | ] | | q q t   @ % ",
"O . % G P G <.-.>.o.| ] ' | ' | | ] ' ' o.0.0.0.>.-.>.' o.] ' ' | G P P k k i t 6 q ] | ] | ' ] ] | ' o.[ | 0.5.4.-.>.<.' | ] | ' ] | ] ' q q 8 @ % @ ",
"@   @ J P U >.>.-.' ] ' o.] ] | [ | | ] o.0.0.0.>.>.-.| ' | | ] ] P P P k k f q 6 q ' | ] ' | ] o.' ] | o.o.0.0.3.-.2.>.] ' ] ' | ] ' ' ' q q 6 . . . ",
"  @ $ J P P -.>.>.[ o.| o.| | ' [ o.o.o.o.8.4.8.-.2.>.' ' ] o.] | P P P k k k q t 6 | | ] | ' ' ] | ] [ | ' 5.0.5.>.2.-.| | [ o.' ] | | | q 8 t . % % ",
"  % . a k k [ [ | ' [ ] ] ' ] ] | [ 0.0.4.>.-.<.o.' o.] | | ' | ' P P P k k k q q q | ' ' | ] | o.' | 5.5.3.-.-.<.| ] | ' ] ] ' | ] ' ] | q q 6 @ O . ",
"X   % f k k [ ] | o.| ' ' | ' | ] ' 0.0.5.-.>.2.| ] ' | ] ' ] ' ] P P P k k s 8 q q ] ' ' ] | ] o.' ] 0.0.0.-.>.<.o.] ' | ] | ' | ' ] ' ' q q q . O @ ",
"% % % k k h ' | ] ' ] ' ] [ ] | ] | 0.0.0.>.>.-.] | ' ] [ | | ] | P P P k k i 6 q 8 ] | | ] ' ' ] | | 4.0.0.>.>.-.[ | ' [ ' | ] ] ' | | ' q q t . % . ",
"@ % @ f k k | | ] | | ] ] [ | 0.9.9.-.>.-.o.] [ ' ' | | ] ' | | ' A A A v b b D A A | | ' o.] X.8.0.5.-.-.-.| ' ] ' ] | ' ' ] | ' ] | | ' q t 8 . @ . ",
". .   k k k ] ' [ ' | ' ' | [ 5.0.3.>.>.>.| | o.| ] ' ] | ' ] ' ] A A A b x b D A A ' ] ] | ' | 0.5.5.-.>.-.] ] | ] ' | ] | ] ' | ] ' ] ' q 6 q . O % ",
". . . k k k ] | | ] ] | | ] o.0.0.0.-.>.-.] ' ' | ] | ] ] ' o.o.X.S S A m b b D A A ' | | | ] o.5.0.5.>.>.>.| o.' ' ] ] | ] | ' | ' ] ' | q 6 q % O . ",
"% @ % k k k ' ' ' o.' o.0.5.4.-.2.>.[ [ ' ] | ] ' | ' ' | | 9.0.4.v b b 3 3 3 v b v ] ] ' 5.9.0.-.>.-.| [ o.' ] ] | | ' ' ' | ] ] ' | | ] q 8 q . @ @ ",
"@ . % k k k | ] ] | ' | 8.9.0.<.-.>.' | ] ' ' | | ] ] ' | ] 0.0.9.b b b 3 3 3 x b v X.' o.0.0.0.$.>.>.[ ] ' ' | ' | | ] ] ] | ' | ' ] ] | q t 6 . @ . ",
"% .   k k k ' ] ] ' ] | 8.9.4.>.-.>.] | ] | ] | ] ' [ | | ' 0.0.5.b v v 3 3 3 m b M ] | X.5.0.5.>.-.-.o.' ] | ] ] ] ' ' | ' | ] ] ' | ' ' t 8 q % O . ",
"@ % @ k k k | | | 0.0.0.-.-.-.o.o.o.[ ' ' ' | o.| | | 0.5.0.-.-.-.C V V 3 3 3 V V C 9.0.5.-.-.>.| ' [ o.' | | ] | ' ] | ' | ' ] ] | ' | | q t q . . % ",
". . . f k k ] ' ' 5.0.0.>.<.>.[ o.[ | ] | ] ] ' ' ] ' 3.0.0.>.>.-.V V Z 3 3 3 V V V 0.5.8.-.-.-.] ] o.| | ] ' ' | ] ' | ] ] ' | ' | ] ] ' q 6 6 % @ O ",
"@ % @ k k k ] o.| 0.0.5.-.-.-.] ' ] ] | o.] ' [ | o.o.4.0.5.>.-.>.Z V V 3 3 3 B V V 9.3.0.-.-.>.[ ' | ] | ] ' ' | ] | ] ' ' | ] ' | ] ] | q q q @ . % ",
"O . . k k i 9.0.5.-.2.-.] | ] | | | ' ' ] [ o.| 5.0.4.2.-.>.| ' [ k k k 3 3 3 q 6 q >.<.>.| [ [ | ] | ' ' ] | ] o.' ' ] | ] ' o.] ' | ' | q q t @   @ ",
"  @ % k k a 0.0.0.>.>.>.' | ' o.] ' | ] | ] ' ] 0.0.0.<.2.>.| ] o.a k k 3 3 3 q 6 5 >.-.>.[ ] [ ] | ] ' ' | ] | | | ] | | ' | ' [ | ' ] ' q 6 6 . @ . ",
".     k k k 5.4.0.>.-.-.] [ | ] | | ' ] | ' | ] 8.0.5.>.-.>.' ] | f k k 3 3 2 q q q >.$.-.[ ] | ' ' ] | ] | ' ' ] ' o.' ] ] | | ] ' | | ] q q q . % . ",
"% . % f k k >.>.-.[ X.[ [ ] X.| ] ' ] | ] 9.0.3.-.>.>.[ ] | ' ' o.k k k u k k q 6 t | ] ] ' ' ' | ] ' | ] ' | ] o.| | ' | | ] ' ' ] 9.4.0.q t 6 % O O ",
"@ . @ i k k >.-.>.o.| ] ]  .] ' ] | ] ' | 5.3.0.>.-.-.o.' | ] X.' k k k a k i q q q ' | | | ] | | ' ] | ] | ' ] ] ' ] ] ] ' ] | | ] 9.8.0.q 8 q . @ % ",
". @ @ k k k -.-.-.] ] | ' | ] | ] ' | ' o.5.9.0.-.2.-.[ ' ] | [ | k k k k k f q t q ' | ' | ' ] ] ] ' ' ' ' | | ' | | | | ' ] X.| ] 9.8.0.7 t q . @ . ",
". % . k f a [ | ] | o.' ] | ' o.| | 9.4.0.>.-.>.| ' ] [ | ] ' | ] k k k k i f q 6 q ] ] ' ] | ] ' | | ] | ] ] ' ' ] ' | ] ] X.4.0.8.-.<.<.8 6 q % O . ",
"% @   k k k o.] ] | ' | ] ' ' o.' | 0.0.0.2.>.>.' ] | | ' ] | ' | k k k k k k q q q | ' ' | ] ] ] | | ' | ' ' ] | ] | ] ' ' o.0.0.0.2.>.>.q 6 q . @ . ",
". . @ f k k ' | ' | ] | ] | ] | ] ] 0.0.0.>.-.2.| ] ' ] ' | ] ' ' k k k k k k q 6 t ] | ] | ' | ' ' ] ] ] ] | | ' ' ] ' | ] | 0.0.0.>.-.-.q q q . O % ",
"% . % i k a ] | ' ] | ] ' ' | 0.9.8.-.-.>.' [ [ | ' ] ' ] ] | | ] k k k k k f q q q ' | ] ' | ' | ] ' | ' | ] ' | | ' | 5.0.5.>.-.>.] | [ 6 q 6 % O . ",
"@ . O f k f ] ' | ] ' ' | ] ' 5.8.4.>.>.-.| o.o.] ' | | | ' ' ] | k k k k k i q 6 q ' ] | ' ] ] | ' ] | ' ] | ' ] ] | ] 0.0.0.-.>.>.' [ X.q q q . @ @ ",
"@ % @ k k k | ] o.] | | [ o.o.0.0.0.-.>.>.| ' o.| ' ] ] ] ' ' | ' k k k k k i q q q ] ' | ] ' | ] ] ' | ' | ] ] o.o.[ +.0.0.0.>.-.-.[ ' | q t 6 . @ . ",
". . . k k k | ' ] ' ' ] 0.0.5.>.>.-.[ ' [ ] | o.] ' | ' | | ] ] ] k k k k k f q t 6 | ' | ' ] | ' | ' ] ] | ' | o.0.0.5.>.>.-.o.] | | ] ' t 8 q % O . ",
". % % k f a ] ' | o.| ] 0.4.0.-.>.-.o.| ' | ] ' ] | ' | ' ] | ' | k k k k k k q 8 q | ] ] ] ' ' | ' | ] ] ' | ' ' 5.0.0.-.>.>.o.] ' ] | | q t q . . % ",
". @   k a f ] | [ ] ' | 0.0.0.-.2.>.o.o.[ ] ] | ' | ] ] ' | ] [ ' k k k k k k q t q ' | ' | | ] ] ] | ' | ' ] ] | 0.0.5.>.>.-.' ' | ] | ' q 6 6 % @ O ",
". @ . f k k f k k k k k k k k k k k z k k k k k k k k k k k k k k k k k k k k k k k k k k k k k f k k k k k k k k k k k k k k k k l k k k r q 6 @ . % ",
"% % @ f k k k k k k k k k k k k k k k k k k k k k k k k k k k k k k k k k k k k k k k k k k k k a k k k k k k k k k k k k k k k k k k k k q q q % @ @ ",
". .   k k k z f k k k f z z u k k k k z k k k k k k k k k k k k k k k k k k k k k k k k k k k k k k k k k k k k k k k k k k k k a k k z k q q q % . . ",
"< = : P P P W ~ W ~ W E ~ W W P U U P I U W ~ E P P P P P P P P P P P P P P P P P P P P P P P P P P P P P P P P P P P P P P P P P P P P P k k k : : : ",
": : : P P P ~ W W ~ W E W W ~ P P P P P P ~ ~ W P P P P P P P P P P P P P P P P P P P P P P P P P P P P P P P P P P P P P P P P P P P P P k k f : : : ",
": , : P P P ~ W ~ W ~ ~ W ~ W P P P P I P W W W P P P P P P P P P P P P P P P P P P P P P P P P P P P P P P P P P P P P P P P P P P P P P k k f : : : ",
": : < y k k k k k k k k k k k k k k k k k k k k k k k k k k k k k k k k k k k k k k k k k k k k k k k k k k k k k k k k k k k k f k k k k q q q : : : ",
": : < a k k k k k k k k k k k k k k k k k k k k k k k k k k k k k k k k k k k k k k k k k k k k k k k k k k k k k k k k k k k k k k k k k q q q : : : ",
": : : k k k k k k k k k k k k k k k k k k k k k k k k k k k k k k k k k k k k k k k k k k k k k k k k k k k k k k k k k k k k k k k k f h 5 q t : : : ",
": : : : : : : : : : : : : : : : : : : : : : : : : : : : : : : : : : : : : : : : : : : : : : : : : : : : : : : : : : : : : : : : : 1 : : : : : : : : : ",
": : : : : : = : : : : : : : : : : : : : : : : : : : : : : : : : : : : : : : : : : : : : : : : : : : : : : : : : : : : : : : : : : : : : : : : : : : : ",
"< < : : : = : , : : : : : : : : : : : : : : : : : : : : : : : : : : : : : : : : : : : : : : : : : : : : : : : : : : : : : : : : : : : : : : : : : : : "
};
