/* XPM */
static char *_8894fb09d3549b6de0992d8f14880ccZk2myxWBwwQwNCCD[] = {
/* columns rows colors chars-per-pixel */
"20 20 8 1 ",
"  c None",
". c black",
"X c #B5952F",
"o c #DBB43A",
"O c #FBFABC",
"+ c black",
"@ c black",
"# c black",
/* pixels */
"                    ",
"        ...         ",
"       .oOO.        ",
"      .XooO.        ",
"      .oo.oo.       ",
"      .X..oo.       ",
"      .X..oo.       ",
"      .XX.oo.       ",
"      .XXoo.        ",
"       .Xoo.        ",
"       .Xo.         ",
"       .Xo.         ",
"       .Xo.         ",
"       .XoO.        ",
"       .Xo.         ",
"       .XoO.        ",
"       .Xo.         ",
"       .XoO.        ",
"        ...         ",
"                    "
};
