/* XPM */
static char *be173fd9b0864759eca08fba22651c216N0KbUFR4NF7DVfh[] = {
/* columns rows colors chars-per-pixel */
"20 20 8 1 ",
"  c None",
". c black",
"X c #B5952F",
"o c #DBB43A",
"O c #FBFABC",
"+ c black",
"@ c black",
"# c black",
/* pixels */
"                    ",
"        ...         ",
"       .OOo.        ",
"       .OooX.       ",
"      .Oo.oo.       ",
"      .oo..X.       ",
"      .oo..X.       ",
"      .oo.XX.       ",
"       .ooXX.       ",
"       .ooX.        ",
"        .oX.        ",
"        .oX.        ",
"        .oX.        ",
"        .OX.        ",
"        .oX.        ",
"        .OX.        ",
"        .oX.        ",
"        .OX.        ",
"        ...         ",
"                    "
};
