/* XPM */
static char *_bf80021c5d34ac0cb1307650d0d499dExLQ6Ut2JTuW1AnE[] = {
/* columns rows colors chars-per-pixel */
"20 20 8 1 ",
"  c None",
". c black",
"X c #B5952F",
"o c #DBB43A",
"O c #FBFABC",
"+ c black",
"@ c black",
"# c black",
/* pixels */
"                    ",
"        ...         ",
"      ..OOo..       ",
"      .OOooo.       ",
"      .Oo.oo.       ",
"      .Oo.oo.       ",
"      .oo.oo.       ",
"      .oo.Xo.       ",
"      .oooXo.       ",
"       .ooX.        ",
"       .ooX.        ",
"       .ooX.        ",
"       .ooX.        ",
"       .oOO.        ",
"       .ooX.        ",
"       .oOO.        ",
"       .ooX.        ",
"       .oOO.        ",
"        ...         ",
"                    "
};
