/* XPM */
static char *_08df32478cb4fd9d1c4b9ca8dfb21begLa3u6MInVT7RBMI[] = {
/* columns rows colors chars-per-pixel */
"20 20 8 1 ",
"  c None",
". c black",
"X c #B5952F",
"o c #DBB43A",
"O c #FBFABC",
"+ c black",
"@ c black",
"# c black",
/* pixels */
"                    ",
"        ...         ",
"       .oOO.        ",
"      .XooO.        ",
"      .oo.oO.       ",
"      .X..oo.       ",
"      .X..oo.       ",
"      .XX.oo.       ",
"      .XXoo.        ",
"       .Xoo.        ",
"       .Xo.         ",
"       .Xo.         ",
"       .Xo.         ",
"       .XO.         ",
"       .Xo.         ",
"       .XO.         ",
"       .Xo.         ",
"       .XO.         ",
"        ...         ",
"                    "
};
