/* XPM */
static char *ea19b9e93b0a4b21fe947bf3aa8d5b25ZWqeU8AdO6htFFLp[] = {
/* columns rows colors chars-per-pixel */
"64 64 149 2 ",
"   c None",
".  c #1C0A00",
"X  c #210900",
"o  c #4B3013",
"O  c #523E1C",
"+  c #544318",
"@  c #63471F",
"#  c #6D461F",
"$  c #73441B",
"%  c #704A1C",
"&  c #5E4823",
"*  c #644B23",
"=  c #634F2E",
"-  c #684B2B",
";  c #7B4520",
":  c #7F4E25",
">  c #615022",
",  c #65542C",
"<  c #69552B",
"1  c #75532D",
"2  c #73592E",
"3  c #665231",
"4  c #6C5732",
"5  c #6D5B32",
"6  c #6E5E3C",
"7  c #745731",
"8  c #755B34",
"9  c #7B5E35",
"0  c #765D38",
"q  c #795D3B",
"w  c #766136",
"e  c #7A6335",
"r  c #7E6837",
"t  c #75623B",
"y  c #7C653B",
"u  c #7F693E",
"i  c #776541",
"p  c #7C6542",
"a  c #7E6C44",
"s  c #7D7047",
"d  c #814B23",
"f  c #855626",
"g  c #845428",
"h  c #8D5E2F",
"j  c #865D34",
"k  c #885E36",
"l  c #925D35",
"z  c #89602C",
"x  c #826233",
"c  c #8B6431",
"v  c #886E37",
"b  c #82653C",
"n  c #8F673E",
"m  c #836B3E",
"M  c #8B6A3C",
"N  c #916335",
"B  c #93663B",
"V  c #96693E",
"C  c #996A3C",
"Z  c #88713C",
"A  c #92723D",
"S  c #816740",
"D  c #846D43",
"F  c #8A6D44",
"G  c #816748",
"H  c #836C4A",
"J  c #8B6D49",
"K  c #9B6F44",
"L  c #857244",
"P  c #8C7345",
"I  c #867847",
"U  c #8B7946",
"Y  c #85744B",
"T  c #8B744B",
"R  c #8D7A4C",
"E  c #917346",
"W  c #9D7444",
"Q  c #927847",
"!  c #92754A",
"~  c #937B4D",
"^  c #9A7C4D",
"/  c #877751",
"(  c #8E7A51",
")  c #947D52",
"_  c #9B7E51",
"`  c #A47549",
"'  c #A27A4A",
"]  c #94824E",
"[  c #9E844D",
"{  c #958253",
"}  c #9C8353",
"|  c #9C8856",
" . c #978359",
".. c #9D8559",
"X. c #9D8959",
"o. c #A1864F",
"O. c #A48555",
"+. c #A98252",
"@. c #A38A54",
"#. c #A98A56",
"$. c #A38659",
"%. c #A8875A",
"&. c #A48B5C",
"*. c #AA8C5B",
"=. c #A99156",
"-. c #A6915D",
";. c #AB915D",
":. c #B2925C",
">. c #B09C5F",
",. c #A48D60",
"<. c #AB8F67",
"1. c #A59161",
"2. c #AC9263",
"3. c #AE9A62",
"4. c #B29463",
"5. c #B29C63",
"6. c #BB9864",
"7. c #B39C6E",
"8. c #AC9A70",
"9. c #BAA365",
"0. c #B7A169",
"q. c #BCA66E",
"w. c #BFA86C",
"e. c #BCA96B",
"r. c #BFA371",
"t. c #C3A567",
"y. c #C4A476",
"u. c #C4A971",
"i. c #C6A873",
"p. c #C5AC72",
"a. c #CCAE70",
"s. c #CCAD73",
"d. c #C8AB74",
"f. c #CBAC75",
"g. c #CAAD77",
"h. c #CDAE75",
"j. c #CEAD78",
"k. c #CFB976",
"l. c #CFB079",
"z. c #CFB378",
"x. c #CBB37C",
"c. c #CDB97E",
"v. c #D4BB79",
"b. c #D4B87A",
"n. c #D7BA7D",
"m. c #D1BA81",
"M. c #D0BB81",
"N. c #D3BD82",
"B. c #D2BB85",
/* pixels */
"                                                                                                                                ",
"                                                                                                                                ",
"                                                                                                                                ",
"                                                                                                                                ",
"                                                                                                                                ",
"                                                                                                                                ",
"                                                                                                                                ",
"                                                                                                                                ",
"                                      A                           W B l                                                         ",
"                                      B C ` '                 C K V h N                                                         ",
"                                      z f C C ' s.t.b.k.v.n.s.V B l d                                                           ",
"                                      N f $ k n *.c.M.M.N.B.[ x k ; d                                                           ",
"                                        g $ 1 _ ;.e.z.g.z.u.3.@.! # :                                                           ",
"                                        h % ! ..5.r.x.a.j.r.7.-._ E n +.                                                        ",
"                                        c e ) ,.3.0.p.y.g.9.>.-.X.! O.u.                                                        ",
"                                        v ^ X.{ p R &.3.@.T O p &.;.5.u.6.                                                      ",
"                                        A } -.< X o T 2.} + . = 2.4.;.9.h.                                                      ",
"                                        v P ] 1.7 - ! 2.} a / 8.2.O.#.3.q.5.                                                    ",
"                                        Z m L ~ &.,.J <.} 7.7.,.! ^ o.;.5.=.O.#.                                                ",
"                                  :.#.Q U u e 8 J _ b b M &...! P ' O.1.=.@.@.;.4.4.                                            ",
"                                :.&.O.P L m m u b T J @ T T E J ^ ^ O.O.&.@.#.=.;.-.*.                                          ",
"                                #.@.} ! J F D y 9 7 * * 7 q k F E ^ %.+.O.O.+.O.-.@.@.^                                         ",
"                              o.;.*.} _ J F F b y 7 2 9 7 7 9 n F O.O.O.#.%.%.&.-.| X.[ ^                                       ",
"                              o.@.O.^ ^ F M ! ! b b S y b b F J W ' O.O.#.O.^  ...| X.| ~ ^                                     ",
"                              @.@.] Q ~ P P ! ^ ! T P P m b P ! ^ } O.%.%.@.^ ~ ~ ~ ~ ~ } X.[                                   ",
"                            R } } ! Q F D u R ~ _  .~ T P P _ _ O.} O.%.#.*._ P J T T } &.X.|                                   ",
"                            } } } P m u 0 D F _ } } X.{ ~ _ _ _ _  .&.%.*.*.%.%.e e R ) &.X.}                                   ",
"                            ( ] _ Q L e   y T P } ] { R ~ ) $.} ..$.O.#.*.:.*.1.2 * H ~ 1.&.|                                   ",
"                            ..} O.) R     s H ! Z U U P P E ~ } } &.$.;.*.%.*.$.    , Y } } |                                   ",
"                            { &.$.T L       H J T F P y m m P ^ } } &.*.*.<.&.~       ) ..} {                                   ",
"                              X...) T       G H ) ~ T e b e b Q ) ..} O.O.O.$.F       R &.} Y                                   ",
"                              ) } ) T       p / ~ ~ ) F e 5 w m ~ ^ } } O.$.$.        R _ } F                                   ",
"                                 ._ U H     p a T R ) I t , > r D ~ } } %.} ^         ) X.] )                                   ",
"                                ) } T T       s T ) R I s < + > p e } $...! T         ] X.O.                                    ",
"                                ) O.] T       Y ( _ { U u <     t Y P $.%._ R         { o.}                                     ",
"                                  } } ) a       ) _ X.] I ,       ..} *.&._ Y       t } @.[                                     ",
"                                  X.&.] )       J ) { { Y 5       &.$.,.$._ (       T  .@.O.                                    ",
"                                  P ! ) t       T _ { | T 5       &.,.,.$._ T       5 I { T                                     ",
"                                                I | ] } T 8       $.&.,.&.~ a                                                   ",
"                                                ) { [ $.( 8       } &.1.X.~ p                                                   ",
"                                                 .{ } } T 4       ) &.&.@.] p                                                   ",
"                                                ) ..{  .Y 4         *.&.X.{ p                                                   ",
"                                                F {  .) L 4         ,.&.X.R p                                                   ",
"                                                  ) } _ L i         X.&...R p                                                   ",
"                                                  ) _ _ ( i         ) X.&.T t                                                   ",
"                                                  ) } ~ T 6         ) } } L 0                                                   ",
"                                                  a ....I 0          ...X.Y 0                                                   ",
"                                                    ) } a i         ) X...L 4                                                   ",
"                                                     .} e i         ) ..} I 3                                                   ",
"                                                    ( X.S q         p } } I =                                                   ",
"                                                    G ) a y           ) { T &                                                   ",
"                                                      ) F p           R { L *                                                   ",
"                                                      R D p           ( { L                                                     ",
"                                                      ) ! /           {  .L                                                     ",
"                                                    ) ) ~ /         H ~ { L                                                     ",
"                                                  / ) ( R (         I { R I                                                     ",
"                                                    / { T           L ( Y y                                                     ",
"                                                                                                                                ",
"                                                                                                                                ",
"                                                                                                                                ",
"                                                                                                                                ",
"                                                                                                                                ",
"                                                                                                                                ",
"                                                                                                                                "
};
